<svg width="21" height="19" viewBox="0 0 21 19" fill="none" xmlns="http://www.w3.org/2000/svg">
<path d="M20.313 4.47935C20.0027 3.76084 19.5552 3.10972 18.9957 2.56246C18.4358 2.01357 17.7756 1.57738 17.0511 1.27759C16.2998 0.965506 15.4939 0.805761 14.6804 0.807633C13.5391 0.807633 12.4255 1.12017 11.4578 1.71051C11.2263 1.85173 11.0064 2.00685 10.798 2.17585C10.5897 2.00685 10.3697 1.85173 10.1382 1.71051C9.17052 1.12017 8.05697 0.807633 6.91563 0.807633C6.09378 0.807633 5.29739 0.965059 4.54499 1.27759C3.81805 1.57856 3.16289 2.01148 2.60032 2.56246C2.04007 3.10911 1.59252 3.76037 1.28304 4.47935C0.961246 5.22712 0.796875 6.02119 0.796875 6.83842C0.796875 7.60934 0.954301 8.41267 1.26684 9.2299C1.52844 9.91284 1.90348 10.6213 2.3827 11.3366C3.14205 12.4687 4.18615 13.6494 5.4826 14.8463C7.63099 16.8303 9.75855 18.2008 9.84884 18.2564L10.3975 18.6083C10.6406 18.7634 10.9531 18.7634 11.1962 18.6083L11.7449 18.2564C11.8352 18.1985 13.9604 16.8303 16.1111 14.8463C17.4076 13.6494 18.4517 12.4687 19.211 11.3366C19.6902 10.6213 20.0676 9.91284 20.3269 9.2299C20.6394 8.41267 20.7969 7.60934 20.7969 6.83842C20.7992 6.02119 20.6348 5.22712 20.313 4.47935V4.47935Z" fill="#C00505"/>
</svg>
