<svg width="22" height="17" viewBox="0 0 22 17" fill="none" xmlns="http://www.w3.org/2000/svg">
<path d="M20.75 0.700684H1.25C0.835156 0.700684 0.5 1.03143 0.5 1.44082V16.2434C0.5 16.6528 0.835156 16.9836 1.25 16.9836H20.75C21.1648 16.9836 21.5 16.6528 21.5 16.2434V1.44082C21.5 1.03143 21.1648 0.700684 20.75 0.700684ZM19.8125 3.26339V15.3183H2.1875V3.26339L1.54063 2.76611L2.46172 1.59809L3.46484 2.36829H18.5375L19.5406 1.59809L20.4617 2.76611L19.8125 3.26339V3.26339ZM18.5375 2.36598L11 8.14826L3.4625 2.36598L2.45938 1.59578L1.53828 2.7638L2.18516 3.26108L10.1914 9.40417C10.4217 9.58069 10.7049 9.67652 10.9965 9.67652C11.2881 9.67652 11.5713 9.58069 11.8016 9.40417L19.8125 3.26339L20.4594 2.76611L19.5383 1.59809L18.5375 2.36598Z" fill="white"/>
</svg>
