<svg width="21" height="19" viewBox="0 0 21 19" fill="none" xmlns="http://www.w3.org/2000/svg">
<path d="M20.313 4.39405C20.0027 3.68499 19.5552 3.04244 18.9957 2.50239C18.4358 1.96072 17.7756 1.53026 17.0511 1.23442C16.2998 0.926441 15.4939 0.768798 14.6804 0.770646C13.5391 0.770646 12.4255 1.07907 11.4578 1.66165C11.2263 1.80101 11.0064 1.95408 10.798 2.12086C10.5897 1.95408 10.3697 1.80101 10.1382 1.66165C9.17052 1.07907 8.05697 0.770646 6.91563 0.770646C6.09378 0.770646 5.29739 0.926 4.54499 1.23442C3.81805 1.53142 3.16289 1.95865 2.60032 2.50239C2.04007 3.04184 1.59252 3.68453 1.28304 4.39405C0.961246 5.13198 0.796875 5.91561 0.796875 6.72208C0.796875 7.48285 0.954301 8.27561 1.26684 9.08208C1.52844 9.75605 1.90348 10.4551 2.3827 11.1611C3.14205 12.2783 4.18615 13.4434 5.4826 14.6246C7.63099 16.5825 9.75855 17.935 9.84884 17.9898L10.3975 18.3371C10.6406 18.4901 10.9531 18.4901 11.1962 18.3371L11.7449 17.9898C11.8352 17.9327 13.9604 16.5825 16.1111 14.6246C17.4076 13.4434 18.4517 12.2783 19.211 11.1611C19.6902 10.4551 20.0676 9.75605 20.3269 9.08208C20.6394 8.27561 20.7969 7.48285 20.7969 6.72208C20.7992 5.91561 20.6348 5.13198 20.313 4.39405V4.39405ZM10.798 16.5299C10.798 16.5299 2.55634 11.3187 2.55634 6.72208C2.55634 4.39405 4.50795 2.50696 6.91563 2.50696C8.60795 2.50696 10.0757 3.43908 10.798 4.80071C11.5203 3.43908 12.9881 2.50696 14.6804 2.50696C17.0881 2.50696 19.0397 4.39405 19.0397 6.72208C19.0397 11.3187 10.798 16.5299 10.798 16.5299Z" fill="#C00505"/>
</svg>
