<svg width="24" height="24" viewBox="0 0 24 24" fill="none" xmlns="http://www.w3.org/2000/svg">
<path d="M18 8.00049H20C20.2652 8.00049 20.5196 8.10584 20.7071 8.29338C20.8946 8.48092 21 8.73527 21 9.00049V21.0005C21 21.2657 20.8946 21.5201 20.7071 21.7076C20.5196 21.8951 20.2652 22.0005 20 22.0005H4C3.73478 22.0005 3.48043 21.8951 3.29289 21.7076C3.10536 21.5201 3 21.2657 3 21.0005V9.00049C3 8.73527 3.10536 8.48092 3.29289 8.29338C3.48043 8.10584 3.73478 8.00049 4 8.00049H6V7.00049C6 5.40919 6.63214 3.88307 7.75736 2.75785C8.88258 1.63263 10.4087 1.00049 12 1.00049C13.5913 1.00049 15.1174 1.63263 16.2426 2.75785C17.3679 3.88307 18 5.40919 18 7.00049V8.00049ZM11 15.7325V18.0005H13V15.7325C13.3813 15.5124 13.6793 15.1726 13.8478 14.7658C14.0162 14.359 14.0458 13.9081 13.9319 13.4828C13.8179 13.0575 13.5668 12.6817 13.2175 12.4137C12.8682 12.1457 12.4403 12.0004 12 12.0004C11.5597 12.0004 11.1318 12.1457 10.7825 12.4137C10.4332 12.6817 10.1821 13.0575 10.0681 13.4828C9.9542 13.9081 9.98376 14.359 10.1522 14.7658C10.3207 15.1726 10.6187 15.5124 11 15.7325V15.7325ZM16 8.00049V7.00049C16 5.93962 15.5786 4.92221 14.8284 4.17206C14.0783 3.42192 13.0609 3.00049 12 3.00049C10.9391 3.00049 9.92172 3.42192 9.17157 4.17206C8.42143 4.92221 8 5.93962 8 7.00049V8.00049H16Z" fill="#EF3124"/>
</svg>
