<svg width="56" height="56" viewBox="0 0 56 56" fill="none" xmlns="http://www.w3.org/2000/svg">
<mask id="path-1-inside-1" fill="white">
<path fill-rule="evenodd" clip-rule="evenodd" d="M22.2894 2.53999C22.5162 1.07824 23.7747 0 25.2539 0H30.7461C32.2253 0 33.4838 1.07824 33.7106 2.53999L34.4615 7.37916C35.6895 7.77033 36.869 8.27001 37.9889 8.86694L41.9649 5.95905C43.1589 5.08583 44.8112 5.21326 45.8572 6.25924L49.7407 10.1428C50.7867 11.1888 50.9142 12.8411 50.0409 14.035L47.0326 18.1485C47.5668 19.2171 48.0137 20.3369 48.3639 21.4986L53.46 22.2894C54.9218 22.5162 56 23.7747 56 25.2539V30.7461C56 32.2253 54.9218 33.4838 53.46 33.7106L48.1238 34.5386C47.7656 35.5846 47.3282 36.5937 46.8187 37.559L50.0409 41.965C50.9142 43.1589 50.7867 44.8112 49.7407 45.8572L45.8572 49.7408C44.8112 50.7867 43.1589 50.9142 41.9649 50.0409L37.4196 46.7167C36.5072 47.1682 35.5579 47.5561 34.5773 47.8747L33.7106 53.46C33.4838 54.9218 32.2253 56 30.7461 56H25.2539C23.7747 56 22.5162 54.9218 22.2894 53.46L21.4227 47.8747C20.4421 47.5561 19.4928 47.1682 18.5804 46.7167L14.0351 50.0409C12.8411 50.9142 11.1888 50.7867 10.1428 49.7408L6.25925 45.8572C5.21327 44.8112 5.08583 43.1589 5.95906 41.965L9.18134 37.559C8.67182 36.5937 8.23439 35.5846 7.8762 34.5386L2.53999 33.7106C1.07824 33.4838 0 32.2253 0 30.7461V25.2539C0 23.7747 1.07824 22.5162 2.53999 22.2894L7.63608 21.4986C7.98628 20.3369 8.43317 19.2171 8.96741 18.1485L5.95905 14.035C5.08582 12.8411 5.21326 11.1888 6.25924 10.1428L10.1428 6.25925C11.1887 5.21326 12.841 5.08583 14.035 5.95905L18.0111 8.86694C19.131 8.27001 20.3105 7.77033 21.5385 7.37916L22.2894 2.53999Z"/>
</mask>
<path d="M22.2894 2.53999L25.2539 3V3L22.2894 2.53999ZM33.7106 2.53999L36.6751 2.07998L36.6751 2.07997L33.7106 2.53999ZM34.4615 7.37916L31.497 7.83917L31.7817 9.67404L33.5509 10.2376L34.4615 7.37916ZM37.9889 8.86694L36.5777 11.5143L38.2397 12.4002L39.7598 11.2884L37.9889 8.86694ZM41.9649 5.95905L40.194 3.53754V3.53754L41.9649 5.95905ZM45.8572 6.25924L47.9785 4.13792L47.9785 4.13792L45.8572 6.25924ZM49.7407 10.1428L47.6194 12.2641L47.6194 12.2641L49.7407 10.1428ZM50.0409 14.035L52.4625 15.806V15.806L50.0409 14.035ZM47.0326 18.1485L44.6111 16.3776L43.5313 17.854L44.3493 19.4901L47.0326 18.1485ZM48.3639 21.4986L45.4916 22.3645L46.0369 24.1734L47.9039 24.4632L48.3639 21.4986ZM53.46 22.2894L53 25.2539L53.46 22.2894ZM53.46 33.7106L53.92 36.6751L53.92 36.6751L53.46 33.7106ZM48.1238 34.5386L47.6638 31.5741L45.8728 31.852L45.2856 33.5667L48.1238 34.5386ZM46.8187 37.559L44.1656 36.1585L43.2904 37.8166L44.3971 39.3299L46.8187 37.559ZM50.0409 41.965L47.6194 43.7359L47.6194 43.7359L50.0409 41.965ZM41.9649 50.0409L43.7359 47.6194L41.9649 50.0409ZM37.4196 46.7167L39.1905 44.2952L37.7209 43.2204L36.089 44.0279L37.4196 46.7167ZM34.5773 47.8747L33.6502 45.0216L31.8956 45.5916L31.6128 47.4147L34.5773 47.8747ZM33.7106 53.46L30.7461 53L33.7106 53.46ZM22.2894 53.46L25.2539 53V53L22.2894 53.46ZM21.4227 47.8747L24.3873 47.4147L24.1044 45.5916L22.3498 45.0216L21.4227 47.8747ZM18.5804 46.7167L19.911 44.0279L18.2791 43.2204L16.8095 44.2952L18.5804 46.7167ZM14.0351 50.0409L15.806 52.4625L15.806 52.4625L14.0351 50.0409ZM10.1428 49.7408L8.02146 51.8621L8.02146 51.8621L10.1428 49.7408ZM6.25925 45.8572L4.13793 47.9785H4.13793L6.25925 45.8572ZM5.95906 41.965L8.38056 43.7359H8.38057L5.95906 41.965ZM9.18134 37.559L11.6029 39.3299L12.7096 37.8166L11.8344 36.1585L9.18134 37.559ZM7.8762 34.5386L10.7144 33.5667L10.1272 31.852L8.33621 31.5741L7.8762 34.5386ZM2.53999 33.7106L3 30.7461H3L2.53999 33.7106ZM2.53999 22.2894L3 25.2539H3L2.53999 22.2894ZM7.63608 21.4986L8.0961 24.4632L9.96312 24.1734L10.5084 22.3645L7.63608 21.4986ZM8.96741 18.1485L11.6507 19.4901L12.4687 17.854L11.3889 16.3776L8.96741 18.1485ZM5.95905 14.035L8.38056 12.2641L5.95905 14.035ZM6.25924 10.1428L4.13792 8.02145L4.13792 8.02145L6.25924 10.1428ZM10.1428 6.25925L12.2641 8.38057H12.2641L10.1428 6.25925ZM14.035 5.95905L12.2641 8.38056H12.2641L14.035 5.95905ZM18.0111 8.86694L16.2402 11.2885L17.7603 12.4002L19.4223 11.5143L18.0111 8.86694ZM21.5385 7.37916L22.4491 10.2376L24.2183 9.67404L24.503 7.83917L21.5385 7.37916ZM25.2539 -3C22.2955 -3 19.7785 -0.843519 19.3249 2.07998L25.2539 3V3V-3ZM30.7461 -3H25.2539V3H30.7461V-3ZM36.6751 2.07997C36.2215 -0.843517 33.7046 -3 30.7461 -3V3L30.7461 3.00001L36.6751 2.07997ZM37.426 6.91915L36.6751 2.07998L30.7461 3L31.497 7.83917L37.426 6.91915ZM39.4 6.21955C38.1217 5.53817 36.7748 4.96752 35.3721 4.52069L33.5509 10.2376C34.6042 10.5731 35.6163 11.0019 36.5777 11.5143L39.4 6.21955ZM39.7598 11.2884L43.7359 8.38056L40.194 3.53754L36.2179 6.44543L39.7598 11.2884ZM43.7359 8.38056H43.7359L47.9785 4.13792C45.8866 2.04596 42.582 1.7911 40.194 3.53754L43.7359 8.38056ZM43.7359 8.38056L47.6194 12.2641L51.8621 8.02145L47.9785 4.13792L43.7359 8.38056ZM47.6194 12.2641V12.2641L52.4625 15.806C54.2089 13.418 53.954 10.1134 51.8621 8.02145L47.6194 12.2641ZM47.6194 12.2641L44.6111 16.3776L49.4541 19.9195L52.4625 15.806L47.6194 12.2641ZM51.2363 20.6328C50.8362 19.3058 50.3258 18.0269 49.7159 16.807L44.3493 19.4901C44.8078 20.4073 45.1912 21.368 45.4916 22.3645L51.2363 20.6328ZM53.92 19.3249L48.8239 18.5341L47.9039 24.4632L53 25.2539L53.92 19.3249ZM59 25.2539C59 22.2955 56.8435 19.7785 53.92 19.3249L53 25.2539H59ZM59 30.7461V25.2539H53V30.7461H59ZM53.92 36.6751C56.8435 36.2215 59 33.7046 59 30.7461H53L53 30.7461L53.92 36.6751ZM48.5838 37.5032L53.92 36.6751L53 30.7461L47.6638 31.5741L48.5838 37.5032ZM49.4717 38.9595C50.0533 37.8577 50.5529 36.7053 50.962 35.5106L45.2856 33.5667C44.9784 34.4639 44.603 35.3298 44.1656 36.1585L49.4717 38.9595ZM52.4624 40.194L49.2402 35.788L44.3971 39.3299L47.6194 43.7359L52.4624 40.194ZM51.8621 47.9785C53.954 45.8866 54.2089 42.582 52.4624 40.194L47.6194 43.7359V43.7359L51.8621 47.9785ZM47.9785 51.8621L51.8621 47.9785L47.6194 43.7359L43.7359 47.6194L47.9785 51.8621ZM40.194 52.4625C42.582 54.2089 45.8866 53.954 47.9785 51.8621L43.7359 47.6194V47.6194L40.194 52.4625ZM35.6486 49.1382L40.194 52.4625L43.7359 47.6194L39.1905 44.2952L35.6486 49.1382ZM35.5043 50.7279C36.6244 50.364 37.7086 49.9209 38.7501 49.4055L36.089 44.0279C35.3059 44.4154 34.4914 44.7483 33.6502 45.0216L35.5043 50.7279ZM36.6751 53.92L37.5418 48.3347L31.6128 47.4147L30.7461 53L36.6751 53.92ZM30.7461 59C33.7046 59 36.2215 56.8435 36.6751 53.92L30.7461 53V59ZM25.2539 59H30.7461V53H25.2539V59ZM19.3249 53.92C19.7785 56.8435 22.2955 59 25.2539 59V53H25.2539L19.3249 53.92ZM18.4582 48.3347L19.3249 53.92L25.2539 53L24.3873 47.4147L18.4582 48.3347ZM17.2499 49.4055C18.2914 49.9209 19.3756 50.364 20.4957 50.7279L22.3498 45.0216C21.5086 44.7483 20.6941 44.4154 19.911 44.0279L17.2499 49.4055ZM15.806 52.4625L20.3514 49.1382L16.8095 44.2952L12.2641 47.6194L15.806 52.4625ZM8.02146 51.8621C10.1134 53.954 13.418 54.2089 15.806 52.4625L12.2641 47.6194H12.2641L8.02146 51.8621ZM4.13793 47.9785L8.02146 51.8621L12.2641 47.6194L8.38057 43.7359L4.13793 47.9785ZM3.53755 40.194C1.79109 42.582 2.04597 45.8866 4.13793 47.9785L8.38057 43.7359H8.38056L3.53755 40.194ZM6.75983 35.788L3.53755 40.194L8.38057 43.7359L11.6029 39.3299L6.75983 35.788ZM5.03801 35.5106C5.44714 36.7053 5.94668 37.8576 6.52829 38.9594L11.8344 36.1585C11.397 35.3298 11.0216 34.4639 10.7144 33.5667L5.03801 35.5106ZM2.07998 36.6751L7.41619 37.5031L8.33621 31.5741L3 30.7461L2.07998 36.6751ZM-3 30.7461C-3 33.7046 -0.843518 36.2215 2.07998 36.6751L3 30.7461H3H-3ZM-3 25.2539V30.7461H3V25.2539H-3ZM2.07998 19.3249C-0.843521 19.7785 -3 22.2955 -3 25.2539H3L3 25.2539L2.07998 19.3249ZM7.17607 18.5341L2.07998 19.3249L3 25.2539L8.0961 24.4632L7.17607 18.5341ZM6.28408 16.807C5.67417 18.0269 5.16377 19.3058 4.76375 20.6328L10.5084 22.3645C10.8088 21.368 11.1922 20.4073 11.6507 19.4901L6.28408 16.807ZM3.53754 15.806L6.54589 19.9195L11.3889 16.3776L8.38056 12.2641L3.53754 15.806ZM4.13792 8.02145C2.04596 10.1134 1.79109 13.418 3.53754 15.806L8.38056 12.2641L4.13792 8.02145ZM8.02145 4.13793L4.13792 8.02145L8.38056 12.2641L12.2641 8.38057L8.02145 4.13793ZM15.806 3.53754C13.418 1.79109 10.1134 2.04597 8.02145 4.13793L12.2641 8.38057L12.2641 8.38056L15.806 3.53754ZM19.7821 6.44543L15.806 3.53754L12.2641 8.38056L16.2402 11.2885L19.7821 6.44543ZM20.6279 4.52069C19.2253 4.96752 17.8783 5.53817 16.6 6.21956L19.4223 11.5143C20.3837 11.0019 21.3958 10.5731 22.4491 10.2376L20.6279 4.52069ZM19.3249 2.07998L18.574 6.91915L24.503 7.83917L25.2539 3L19.3249 2.07998Z" fill="#1A70DB" mask="url(#path-1-inside-1)"/>
<circle cx="28" cy="28" r="11.5" stroke="#1A70DB" stroke-width="3" stroke-linecap="round"/>
</svg>
