<svg width="32" height="32" viewBox="0 0 32 32" fill="none" xmlns="http://www.w3.org/2000/svg">
<path d="M16.0027 9.73469C12.5974 9.73469 9.85075 12.4294 9.85075 15.7701C9.85075 19.1109 12.5974 21.8055 16.0027 21.8055C19.4079 21.8055 22.1546 19.1109 22.1546 15.7701C22.1546 12.4294 19.4079 9.73469 16.0027 9.73469ZM16.0027 19.6939C13.8021 19.6939 12.0031 17.9342 12.0031 15.7701C12.0031 13.606 13.7968 11.8463 16.0027 11.8463C18.2086 11.8463 20.0022 13.606 20.0022 15.7701C20.0022 17.9342 18.2032 19.6939 16.0027 19.6939V19.6939ZM23.8412 9.48781C23.8412 10.2705 23.1987 10.8956 22.4062 10.8956C21.6085 10.8956 20.9713 10.2652 20.9713 9.48781C20.9713 8.71041 21.6138 8.08007 22.4062 8.08007C23.1987 8.08007 23.8412 8.71041 23.8412 9.48781ZM27.9157 10.9166C27.8247 9.03082 27.3856 7.36045 25.9775 5.98423C24.5747 4.60801 22.8721 4.17728 20.9499 4.08273C18.9689 3.97242 13.0311 3.97242 11.0501 4.08273C9.1333 4.17203 7.43068 4.60275 6.02253 5.97897C4.61439 7.3552 4.1807 9.02557 4.08433 10.9113C3.97189 12.8548 3.97189 18.6801 4.08433 20.6236C4.17535 22.5094 4.61439 24.1798 6.02253 25.556C7.43068 26.9322 9.12794 27.3629 11.0501 27.4575C13.0311 27.5678 18.9689 27.5678 20.9499 27.4575C22.8721 27.3682 24.5747 26.9375 25.9775 25.556C27.3803 24.1798 27.8193 22.5094 27.9157 20.6236C28.0281 18.6801 28.0281 12.8601 27.9157 10.9166V10.9166ZM25.3564 22.709C24.9388 23.7385 24.1303 24.5317 23.0755 24.9467C21.496 25.5612 17.7481 25.4194 16.0027 25.4194C14.2572 25.4194 10.504 25.556 8.92984 24.9467C7.88042 24.5369 7.07195 23.7438 6.64897 22.709C6.02253 21.1594 6.16709 17.4825 6.16709 15.7701C6.16709 14.0577 6.02789 10.3755 6.64897 8.83122C7.06659 7.80168 7.87507 7.00851 8.92984 6.59355C10.5093 5.97897 14.2572 6.1208 16.0027 6.1208C17.7481 6.1208 21.5014 5.98423 23.0755 6.59355C24.1249 7.00326 24.9334 7.79643 25.3564 8.83122C25.9828 10.3808 25.8383 14.0577 25.8383 15.7701C25.8383 17.4825 25.9828 21.1647 25.3564 22.709Z" fill="#555555"/>
</svg>
