<svg width="12" height="12" viewBox="0 0 12 12" fill="none" xmlns="http://www.w3.org/2000/svg">
<path fill-rule="evenodd" clip-rule="evenodd" d="M7.414 6L11.677 10.263C11.832 10.418 11.922 10.565 11.969 10.718C12.0154 10.8688 12.0154 11.0302 11.969 11.181C11.922 11.335 11.832 11.481 11.677 11.637L11.637 11.677C11.5121 11.8112 11.3552 11.9117 11.181 11.969C11.0302 12.0154 10.8688 12.0154 10.718 11.969C10.5442 11.9115 10.3877 11.8111 10.263 11.677L6 7.414L1.737 11.677C1.61235 11.8111 1.45584 11.9115 1.282 11.969C1.13116 12.0154 0.969846 12.0154 0.819004 11.969C0.644807 11.9117 0.48794 11.8112 0.363004 11.677L0.323004 11.637C0.188764 11.5121 0.0883142 11.3552 0.031004 11.181C-0.0154209 11.0302 -0.0154209 10.8688 0.031004 10.718C0.078004 10.565 0.168004 10.418 0.323004 10.263L4.586 6L0.323004 1.737C0.188905 1.61235 0.0884652 1.45584 0.031004 1.282C-0.0154209 1.13116 -0.0154209 0.969843 0.031004 0.819001C0.078004 0.665001 0.168004 0.519001 0.323004 0.363001L0.363004 0.323001C0.518004 0.168001 0.665004 0.0780007 0.820004 0.0300007C0.970846 -0.0164242 1.13216 -0.0164242 1.283 0.0300007C1.436 0.0770007 1.583 0.167001 1.738 0.322001L6 4.586L10.263 0.323001C10.418 0.168001 10.565 0.0780007 10.718 0.0310007C10.8688 -0.0154242 11.0302 -0.0154242 11.181 0.0310007C11.335 0.0780007 11.481 0.168001 11.637 0.323001L11.677 0.363001C11.832 0.518001 11.922 0.665001 11.969 0.819001C12.0154 0.969843 12.0154 1.13116 11.969 1.282C11.922 1.435 11.832 1.582 11.677 1.737L7.414 6Z" fill="#EF3124"/>
</svg>
