<svg width="17" height="12" viewBox="0 0 17 12" fill="none" xmlns="http://www.w3.org/2000/svg">
<path fill-rule="evenodd" clip-rule="evenodd" d="M0.971734 12H15.0307C15.2487 12 15.4167 11.96 15.5587 11.884C15.698 11.8102 15.8119 11.6963 15.8857 11.557C15.9617 11.415 16.0017 11.247 16.0017 11.029V10.971C16.0017 10.753 15.9617 10.585 15.8857 10.443C15.8119 10.3037 15.698 10.1898 15.5587 10.116C15.4167 10.04 15.2487 10 15.0307 10H0.970734C0.752734 10 0.584734 10.04 0.442734 10.116C0.303446 10.1898 0.189527 10.3037 0.115734 10.443C0.0335669 10.6065 -0.00598872 10.7881 0.000733816 10.971V11.03C0.000733816 11.247 0.0407338 11.415 0.116734 11.557C0.190527 11.6963 0.304446 11.8102 0.443734 11.884C0.585734 11.96 0.753734 12 0.971734 12ZM0.971734 7H15.0307C15.2487 7 15.4167 6.96 15.5587 6.884C15.698 6.81021 15.8119 6.69629 15.8857 6.557C15.9617 6.415 16.0017 6.247 16.0017 6.029V5.971C16.0017 5.753 15.9617 5.585 15.8857 5.443C15.8119 5.30371 15.698 5.18979 15.5587 5.116C15.4167 5.04 15.2487 5 15.0307 5H0.970734C0.752734 5 0.584734 5.04 0.442734 5.116C0.303446 5.18979 0.189527 5.30371 0.115734 5.443C0.0335669 5.60651 -0.00598872 5.78813 0.000733816 5.971V6.03C0.000733816 6.248 0.0407338 6.416 0.116734 6.558C0.190527 6.69729 0.304446 6.81121 0.443734 6.885C0.585734 6.96 0.753734 7 0.971734 7ZM0.971734 2H15.0307C15.2487 2 15.4167 1.96 15.5587 1.884C15.698 1.81021 15.8119 1.69629 15.8857 1.557C15.9617 1.415 16.0017 1.247 16.0017 1.029V0.971C16.0017 0.752999 15.9617 0.585 15.8857 0.443C15.8119 0.303712 15.698 0.189794 15.5587 0.116C15.4167 0.04 15.2487 0 15.0307 0H0.970734C0.752734 0 0.584734 0.04 0.442734 0.116C0.303446 0.189794 0.189527 0.303712 0.115734 0.443C0.0335669 0.606514 -0.00598872 0.788125 0.000733816 0.971V1.029C0.000733816 1.247 0.0407338 1.415 0.116734 1.557C0.190527 1.69629 0.304446 1.81021 0.443734 1.884C0.585734 1.96 0.753734 2 0.971734 2Z" fill="#EF3124"/>
</svg>
